<svg width="194" height="124" viewBox="0 0 194 124" fill="none" xmlns="http://www.w3.org/2000/svg">
<mask id="mask0_1104_74064" style="mask-type:alpha" maskUnits="userSpaceOnUse" x="0" y="0" width="194" height="124">
<g clip-path="url(#clip0_1104_74064)">
<g clip-path="url(#clip1_1104_74064)">
<path d="M35.9503 118.112C27.8502 120.542 19.369 116.13 17.0071 108.257L4.29225 65.8761C1.93032 58.0032 6.58212 49.6511 14.6822 47.221C22.7823 44.7909 31.2634 49.203 33.6254 57.0758L46.3402 99.4572C48.7021 107.33 44.0503 115.682 35.9503 118.112Z" fill="#EAB308"/>
<path d="M64.4581 109.558C56.358 111.988 47.8768 107.576 45.5149 99.7027L32.8001 57.3214C30.4381 49.4485 35.0899 41.0964 43.19 38.6663C51.2901 36.2362 59.7713 40.6483 62.1332 48.5212L74.848 90.9025C77.2099 98.7753 72.5581 107.127 64.4581 109.558Z" fill="#EAB308"/>
<path d="M92.9659 101.007C84.8658 103.437 76.3846 99.0248 74.0227 91.1519L61.3079 48.7706C58.9459 40.8977 63.5977 32.5456 71.6978 30.1155C79.7979 27.6854 88.2791 32.0975 90.641 39.9704L103.356 82.3517C105.717 90.2248 101.065 98.5769 92.9659 101.007Z" fill="#EAB308"/>
<path d="M121.482 92.4521C113.381 94.8822 104.9 90.4701 102.538 82.5972L89.8235 40.2159C87.4616 32.343 92.1134 23.9909 100.213 21.5608C108.314 19.1307 116.795 23.5428 119.157 31.4157L131.871 73.797C134.233 81.6699 129.582 90.022 121.482 92.4521Z" fill="#EAB308"/>
<path d="M149.989 83.9013C141.889 86.3314 133.408 81.9193 131.046 74.0464L118.331 31.6651C115.969 23.7923 120.621 15.4401 128.721 13.01C136.821 10.5799 145.303 14.992 147.664 22.8649L160.379 65.2462C162.741 73.1191 158.089 81.4712 149.989 83.9013Z" fill="#EAB308"/>
<path d="M178.497 75.3466C170.397 77.7767 161.916 73.3646 159.554 65.4918L146.839 23.1104C144.477 15.2376 149.129 6.88546 157.229 4.45536C165.329 2.02526 173.81 6.43735 176.172 14.3102L188.887 56.6915C191.248 64.5647 186.596 72.9168 178.497 75.3466Z" fill="#EAB308"/>
</g>
</g>
</mask>
<g mask="url(#mask0_1104_74064)">
<rect y="51.625" width="179.65" height="74.77" transform="rotate(-16.6998 0 51.625)" fill="#EAB308"/>
</g>
<path d="M53.4427 68.2279L56.7865 79.3735L55.4803 79.7653L46.7815 72.8364L46.6726 72.8691L49.298 81.6201L47.9484 82.025L44.6046 70.8794L45.9107 70.4876L54.6379 77.4317L54.7467 77.3991L52.1148 68.6263L53.4427 68.2279ZM59.4871 78.5633L56.1434 67.4177L62.8699 65.3996L63.2291 66.5969L57.8522 68.21L58.982 71.976L64.0106 70.4674L64.3698 71.6647L59.3412 73.1733L60.4776 76.9611L65.9415 75.3218L66.3007 76.5191L59.4871 78.5633ZM70.6708 75.208L64.2794 64.9768L65.6508 64.5653L70.7034 72.9441L70.8123 72.9114L70.4617 63.122L71.9855 62.6649L77.0817 71.0306L77.1905 70.9979L76.7964 61.2215L78.1679 60.8101L78.464 72.87L77.0708 73.288L71.9464 65.1443L71.8593 65.1704L72.064 74.7901L70.6708 75.208ZM86.7807 61.2634C86.5499 60.7315 86.1566 60.3828 85.6008 60.2174C85.045 60.0519 84.4296 60.0705 83.7548 60.2729C83.2614 60.4209 82.8536 60.6303 82.5314 60.9009C82.2129 61.1705 81.9921 61.476 81.8691 61.8174C81.7497 62.1577 81.7434 62.5057 81.8501 62.8612C81.9393 63.1587 82.0868 63.3933 82.2925 63.5649C82.5008 63.7318 82.7386 63.8523 83.006 63.9263C83.2723 63.9966 83.5424 64.0402 83.8163 64.0569C84.0892 64.0699 84.3372 64.0726 84.5603 64.065L85.7837 64.0302C86.0968 64.0193 86.4513 64.0276 86.8471 64.0552C87.2466 64.0817 87.6444 64.162 88.0406 64.2963C88.4393 64.4258 88.7996 64.638 89.1214 64.933C89.4432 65.228 89.6825 65.6367 89.8392 66.1591C90.0199 66.7614 90.0254 67.353 89.8556 67.9338C89.6894 68.5136 89.3482 69.0372 88.8319 69.5045C88.3193 69.9707 87.6348 70.3322 86.7786 70.5891C85.9804 70.8286 85.2506 70.9071 84.5892 70.8248C83.9314 70.7413 83.3665 70.5193 82.8945 70.1587C82.4261 69.7969 82.0787 69.3179 81.8523 68.7214L83.2455 68.3034C83.408 68.7134 83.654 69.0192 83.9835 69.221C84.3154 69.418 84.692 69.5264 85.1133 69.5464C85.537 69.5616 85.9702 69.5029 86.4129 69.3701C86.928 69.2155 87.3656 68.9933 87.7255 68.7034C88.0843 68.4099 88.3383 68.0766 88.4874 67.7036C88.6354 67.327 88.6485 66.9356 88.5266 66.5292C88.4156 66.1591 88.2218 65.889 87.9453 65.7189C87.6689 65.5487 87.3402 65.4417 86.9592 65.3978C86.5783 65.3539 86.1755 65.3363 85.751 65.345L84.2621 65.3646C83.3162 65.3755 82.5197 65.225 81.8724 64.9129C81.2251 64.6009 80.7888 64.0694 80.5635 63.3184C80.3763 62.6944 80.3818 62.0995 80.5798 61.5339C80.7805 60.9636 81.1288 60.4636 81.6247 60.034C82.1232 59.5997 82.728 59.2759 83.4391 59.0626C84.1575 58.8471 84.8347 58.7843 85.4707 58.8743C86.1056 58.9606 86.6528 59.1761 87.1121 59.5208C87.575 59.8643 87.8999 60.3146 88.0868 60.8715L86.7807 61.2634ZM92.9661 68.5193L89.6223 57.3737L90.9719 56.9688L93.9565 66.9171L99.1375 65.3627L99.4967 66.56L92.9661 68.5193ZM101.586 65.933L98.2427 54.7875L104.969 52.7694L105.328 53.9667L99.9516 55.5798L101.081 59.3458L106.11 57.8372L106.469 59.0345L101.441 60.5431L102.577 64.3309L108.041 62.6916L108.4 63.8889L101.586 65.933ZM107.152 53.4198L106.792 52.2225L115.152 49.7146L115.511 50.9119L112.006 51.9634L114.991 61.9117L113.641 62.3166L110.656 52.3683L107.152 53.4198ZM116.984 50.4699L116.625 49.2726L124.984 46.7647L125.343 47.962L121.839 49.0135L124.823 58.9618L123.474 59.3667L120.489 49.4184L116.984 50.4699ZM130.411 57.2854L127.067 46.1398L133.794 44.1218L134.153 45.3191L128.776 46.9322L129.906 50.6982L134.934 49.1896L135.294 50.3868L130.265 51.8955L131.401 55.6832L136.865 54.044L137.225 55.2413L130.411 57.2854ZM139.57 54.5376L136.226 43.392L139.992 42.2621C140.863 42.0009 141.623 41.9352 142.27 42.0651C142.917 42.1914 143.452 42.4718 143.875 42.9065C144.298 43.3411 144.608 43.8868 144.805 44.5435C145.002 45.2002 145.043 45.8227 144.927 46.4112C144.811 46.9997 144.519 47.5223 144.051 47.9791C143.582 48.4323 142.915 48.7884 142.052 49.0475L139.004 49.9618L138.638 48.7427L141.643 47.8415C142.238 47.663 142.69 47.4322 143.001 47.1492C143.315 46.8651 143.506 46.539 143.573 46.1707C143.643 45.7977 143.611 45.3881 143.478 44.9419C143.344 44.4956 143.143 44.1306 142.876 43.8469C142.609 43.5632 142.265 43.3856 141.844 43.3141C141.422 43.239 140.91 43.2918 140.308 43.4725L137.935 44.1843L140.92 54.1327L139.57 54.5376ZM143.314 47.9568L147.559 52.1408L145.992 52.611L141.791 48.414L143.314 47.9568Z" fill="#161614"/>
<path d="M45.0933 77.4122L146.511 46.9859L146.825 48.0308L45.4068 78.4571L45.0933 77.4122Z" fill="#161614"/>
<defs>
<clipPath id="clip0_1104_74064">
<rect width="179.65" height="74.77" fill="white" transform="translate(0 51.625) rotate(-16.6998)"/>
</clipPath>
<clipPath id="clip1_1104_74064">
<rect width="179.62" height="74.77" fill="white" transform="translate(0.015625 51.6211) rotate(-16.6998)"/>
</clipPath>
</defs>

<text x="97" y="66" 
  text-anchor="middle" dominant-baseline="middle"
  font-family="Arial Black, Helvetica Neue, sans-serif"
  font-weight="900" font-size="17px"
  letter-spacing="0.8" fill="#161614"
  style="text-transform:uppercase">RESEARCH</text>
</svg>
